<mxfile host="app.diagrams.net" agent="Mozilla/5.0 (Macintosh; Intel Mac OS X 10_15_7) AppleWebKit/605.1.15 (KHTML, like Gecko) Version/18.1 Safari/605.1.15" version="24.8.6">
  <diagram name="Page-1" id="hD-dKwoTTIVoyhgk7eDC">
    <mxGraphModel dx="1489" dy="745" grid="1" gridSize="10" guides="1" tooltips="1" connect="1" arrows="1" fold="1" page="1" pageScale="1" pageWidth="827" pageHeight="1169" math="0" shadow="0">
      <root>
        <mxCell id="0" />
        <mxCell id="1" parent="0" />
        <mxCell id="3zZDL_gGiHl7jCIEi6MY-4" value="System diagnozujący wspierany AI" style="swimlane;html=1;childLayout=stackLayout;resizeParent=1;resizeParentMax=0;horizontal=0;startSize=20;horizontalStack=0;whiteSpace=wrap;" parent="1" vertex="1">
          <mxGeometry x="120" y="310" width="1620" height="360" as="geometry" />
        </mxCell>
        <mxCell id="3zZDL_gGiHl7jCIEi6MY-5" value="Agent Chatbota" style="swimlane;html=1;startSize=20;horizontal=0;" parent="3zZDL_gGiHl7jCIEi6MY-4" vertex="1">
          <mxGeometry x="20" width="1600" height="120" as="geometry" />
        </mxCell>
        <mxCell id="3zZDL_gGiHl7jCIEi6MY-21" value="Otrzymanie wiadomości&lt;div&gt;od użytkownika&lt;/div&gt;" style="points=[[0.145,0.145,0],[0.5,0,0],[0.855,0.145,0],[1,0.5,0],[0.855,0.855,0],[0.5,1,0],[0.145,0.855,0],[0,0.5,0]];shape=mxgraph.bpmn.event;html=1;verticalLabelPosition=bottom;labelBackgroundColor=#ffffff;verticalAlign=top;align=center;perimeter=ellipsePerimeter;outlineConnect=0;aspect=fixed;outline=standard;symbol=message;" parent="3zZDL_gGiHl7jCIEi6MY-5" vertex="1">
          <mxGeometry x="405" y="20" width="50" height="50" as="geometry" />
        </mxCell>
        <mxCell id="3zZDL_gGiHl7jCIEi6MY-24" value="Sparafrazowanie zapytania użytkownika w celu ułatwienia wyszukiwania" style="points=[[0.25,0,0],[0.5,0,0],[0.75,0,0],[1,0.25,0],[1,0.5,0],[1,0.75,0],[0.75,1,0],[0.5,1,0],[0.25,1,0],[0,0.75,0],[0,0.5,0],[0,0.25,0]];shape=mxgraph.bpmn.task;whiteSpace=wrap;rectStyle=rounded;size=10;html=1;container=1;expand=0;collapsible=0;taskMarker=abstract;" parent="3zZDL_gGiHl7jCIEi6MY-5" vertex="1">
          <mxGeometry x="525" y="20" width="120" height="80" as="geometry" />
        </mxCell>
        <mxCell id="3zZDL_gGiHl7jCIEi6MY-25" value="" style="edgeStyle=elbowEdgeStyle;fontSize=12;html=1;endArrow=blockThin;endFill=1;rounded=0;exitX=1;exitY=0.5;exitDx=0;exitDy=0;exitPerimeter=0;" parent="3zZDL_gGiHl7jCIEi6MY-5" edge="1">
          <mxGeometry width="160" relative="1" as="geometry">
            <mxPoint x="455" y="45" as="sourcePoint" />
            <mxPoint x="525" y="45" as="targetPoint" />
          </mxGeometry>
        </mxCell>
        <mxCell id="3zZDL_gGiHl7jCIEi6MY-36" value="Wysłanie ostatecznej odpowiedzi do użytkownika" style="points=[[0.25,0,0],[0.5,0,0],[0.75,0,0],[1,0.25,0],[1,0.5,0],[1,0.75,0],[0.75,1,0],[0.5,1,0],[0.25,1,0],[0,0.75,0],[0,0.5,0],[0,0.25,0]];shape=mxgraph.bpmn.task;whiteSpace=wrap;rectStyle=rounded;size=10;html=1;container=1;expand=0;collapsible=0;taskMarker=send;" parent="3zZDL_gGiHl7jCIEi6MY-5" vertex="1">
          <mxGeometry x="1170" y="20" width="120" height="80" as="geometry" />
        </mxCell>
        <mxCell id="zLu5Su_oFIsLBOQvC4iy-10" value="Wysłanie logów z konwersacji do bazy danych agenta analiz epidemiologicznych" style="points=[[0.25,0,0],[0.5,0,0],[0.75,0,0],[1,0.25,0],[1,0.5,0],[1,0.75,0],[0.75,1,0],[0.5,1,0],[0.25,1,0],[0,0.75,0],[0,0.5,0],[0,0.25,0]];shape=mxgraph.bpmn.task;whiteSpace=wrap;rectStyle=rounded;size=10;html=1;container=1;expand=0;collapsible=0;taskMarker=send;" parent="3zZDL_gGiHl7jCIEi6MY-5" vertex="1">
          <mxGeometry x="1360" y="20" width="190" height="80" as="geometry" />
        </mxCell>
        <mxCell id="zLu5Su_oFIsLBOQvC4iy-18" value="" style="edgeStyle=elbowEdgeStyle;fontSize=12;html=1;endArrow=blockThin;endFill=1;rounded=0;exitX=1;exitY=0.5;exitDx=0;exitDy=0;exitPerimeter=0;" parent="3zZDL_gGiHl7jCIEi6MY-5" edge="1">
          <mxGeometry width="160" relative="1" as="geometry">
            <mxPoint x="1290" y="59.170000000000016" as="sourcePoint" />
            <mxPoint x="1360" y="60" as="targetPoint" />
          </mxGeometry>
        </mxCell>
        <mxCell id="3zZDL_gGiHl7jCIEi6MY-13" value="Agent Agregujący N" style="swimlane;html=1;startSize=20;horizontal=0;" parent="3zZDL_gGiHl7jCIEi6MY-4" vertex="1">
          <mxGeometry x="20" y="120" width="1600" height="120" as="geometry" />
        </mxCell>
        <mxCell id="3zZDL_gGiHl7jCIEi6MY-32" value="Analiza odpowiedzi od agentów wiedzy" style="points=[[0.25,0,0],[0.5,0,0],[0.75,0,0],[1,0.25,0],[1,0.5,0],[1,0.75,0],[0.75,1,0],[0.5,1,0],[0.25,1,0],[0,0.75,0],[0,0.5,0],[0,0.25,0]];shape=mxgraph.bpmn.task;whiteSpace=wrap;rectStyle=rounded;size=10;html=1;container=1;expand=0;collapsible=0;taskMarker=abstract;" parent="3zZDL_gGiHl7jCIEi6MY-13" vertex="1">
          <mxGeometry x="730" y="20" width="120" height="80" as="geometry" />
        </mxCell>
        <mxCell id="3zZDL_gGiHl7jCIEi6MY-34" value="Ustanowienie ostatecznej odpowiedzi" style="points=[[0.25,0,0],[0.5,0,0],[0.75,0,0],[1,0.25,0],[1,0.5,0],[1,0.75,0],[0.75,1,0],[0.5,1,0],[0.25,1,0],[0,0.75,0],[0,0.5,0],[0,0.25,0]];shape=mxgraph.bpmn.task;whiteSpace=wrap;rectStyle=rounded;size=10;html=1;container=1;expand=0;collapsible=0;taskMarker=abstract;" parent="3zZDL_gGiHl7jCIEi6MY-13" vertex="1">
          <mxGeometry x="940" y="20" width="120" height="80" as="geometry" />
        </mxCell>
        <mxCell id="3zZDL_gGiHl7jCIEi6MY-35" value="" style="edgeStyle=elbowEdgeStyle;fontSize=12;html=1;endArrow=blockThin;endFill=1;rounded=0;exitX=1;exitY=0.5;exitDx=0;exitDy=0;exitPerimeter=0;entryX=0;entryY=0.5;entryDx=0;entryDy=0;entryPerimeter=0;" parent="3zZDL_gGiHl7jCIEi6MY-13" source="3zZDL_gGiHl7jCIEi6MY-32" target="3zZDL_gGiHl7jCIEi6MY-34" edge="1">
          <mxGeometry width="160" relative="1" as="geometry">
            <mxPoint x="655" y="190" as="sourcePoint" />
            <mxPoint x="800" y="110" as="targetPoint" />
            <Array as="points">
              <mxPoint x="900" y="60" />
            </Array>
          </mxGeometry>
        </mxCell>
        <mxCell id="3zZDL_gGiHl7jCIEi6MY-11" value="Agent Wiedzy N" style="swimlane;html=1;startSize=20;horizontal=0;" parent="3zZDL_gGiHl7jCIEi6MY-4" vertex="1">
          <mxGeometry x="20" y="240" width="1600" height="120" as="geometry">
            <mxRectangle x="20" y="240" width="460" height="30" as="alternateBounds" />
          </mxGeometry>
        </mxCell>
        <mxCell id="3zZDL_gGiHl7jCIEi6MY-28" value="&lt;font style=&quot;font-size: 8px;&quot;&gt;Diagnostyka na podstawie zdefiniowanych źródeł (inne dla każdego z Agentów Wiedzy działających równolegle)&lt;/font&gt;" style="points=[[0.25,0,0],[0.5,0,0],[0.75,0,0],[1,0.25,0],[1,0.5,0],[1,0.75,0],[0.75,1,0],[0.5,1,0],[0.25,1,0],[0,0.75,0],[0,0.5,0],[0,0.25,0]];shape=mxgraph.bpmn.task;whiteSpace=wrap;rectStyle=rounded;size=10;html=1;container=1;expand=0;collapsible=0;taskMarker=abstract;isLoopMultiParallel=1;" parent="3zZDL_gGiHl7jCIEi6MY-11" vertex="1">
          <mxGeometry x="525" y="20" width="120" height="80" as="geometry" />
        </mxCell>
        <mxCell id="3zZDL_gGiHl7jCIEi6MY-31" value="" style="edgeStyle=elbowEdgeStyle;fontSize=12;html=1;endArrow=blockThin;endFill=1;rounded=0;exitX=0.5;exitY=1;exitDx=0;exitDy=0;exitPerimeter=0;entryX=0.5;entryY=0;entryDx=0;entryDy=0;entryPerimeter=0;" parent="3zZDL_gGiHl7jCIEi6MY-4" source="3zZDL_gGiHl7jCIEi6MY-24" target="3zZDL_gGiHl7jCIEi6MY-28" edge="1">
          <mxGeometry width="160" relative="1" as="geometry">
            <mxPoint x="485" y="55" as="sourcePoint" />
            <mxPoint x="555" y="55" as="targetPoint" />
          </mxGeometry>
        </mxCell>
        <mxCell id="3zZDL_gGiHl7jCIEi6MY-33" value="" style="edgeStyle=elbowEdgeStyle;fontSize=12;html=1;endArrow=blockThin;endFill=1;rounded=0;exitX=1;exitY=0.5;exitDx=0;exitDy=0;exitPerimeter=0;entryX=0.5;entryY=1;entryDx=0;entryDy=0;entryPerimeter=0;" parent="3zZDL_gGiHl7jCIEi6MY-4" source="3zZDL_gGiHl7jCIEi6MY-28" target="3zZDL_gGiHl7jCIEi6MY-32" edge="1">
          <mxGeometry width="160" relative="1" as="geometry">
            <mxPoint x="615" y="110" as="sourcePoint" />
            <mxPoint x="615" y="270" as="targetPoint" />
            <Array as="points">
              <mxPoint x="810" y="260" />
            </Array>
          </mxGeometry>
        </mxCell>
        <mxCell id="3zZDL_gGiHl7jCIEi6MY-37" value="" style="edgeStyle=elbowEdgeStyle;fontSize=12;html=1;endArrow=blockThin;endFill=1;rounded=0;exitX=1;exitY=0.5;exitDx=0;exitDy=0;exitPerimeter=0;entryX=0;entryY=0.5;entryDx=0;entryDy=0;entryPerimeter=0;" parent="3zZDL_gGiHl7jCIEi6MY-4" source="3zZDL_gGiHl7jCIEi6MY-34" target="3zZDL_gGiHl7jCIEi6MY-36" edge="1">
          <mxGeometry width="160" relative="1" as="geometry">
            <mxPoint x="880" y="190" as="sourcePoint" />
            <mxPoint x="970" y="190" as="targetPoint" />
            <Array as="points">
              <mxPoint x="1130" y="120" />
            </Array>
          </mxGeometry>
        </mxCell>
        <mxCell id="3zZDL_gGiHl7jCIEi6MY-8" value="użytkownik" style="swimlane;startSize=20;horizontal=0;html=1;whiteSpace=wrap;" parent="1" vertex="1">
          <mxGeometry x="140" y="70" width="1600" height="130" as="geometry" />
        </mxCell>
        <mxCell id="3zZDL_gGiHl7jCIEi6MY-14" value="Chce się dowiedzieć&lt;div&gt;co mu dolega&lt;/div&gt;" style="points=[[0.145,0.145,0],[0.5,0,0],[0.855,0.145,0],[1,0.5,0],[0.855,0.855,0],[0.5,1,0],[0.145,0.855,0],[0,0.5,0]];shape=mxgraph.bpmn.event;html=1;verticalLabelPosition=bottom;labelBackgroundColor=#ffffff;verticalAlign=top;align=center;perimeter=ellipsePerimeter;outlineConnect=0;aspect=fixed;outline=standard;symbol=general;" parent="3zZDL_gGiHl7jCIEi6MY-8" vertex="1">
          <mxGeometry x="60" y="20" width="50" height="50" as="geometry" />
        </mxCell>
        <mxCell id="3zZDL_gGiHl7jCIEi6MY-16" value="Tekstowe opisanie swoich dolegliwości w oknie dialogowym chatbota" style="points=[[0.25,0,0],[0.5,0,0],[0.75,0,0],[1,0.25,0],[1,0.5,0],[1,0.75,0],[0.75,1,0],[0.5,1,0],[0.25,1,0],[0,0.75,0],[0,0.5,0],[0,0.25,0]];shape=mxgraph.bpmn.task;whiteSpace=wrap;rectStyle=rounded;size=10;html=1;container=1;expand=0;collapsible=0;taskMarker=abstract;" parent="3zZDL_gGiHl7jCIEi6MY-8" vertex="1">
          <mxGeometry x="180" y="20" width="120" height="80" as="geometry" />
        </mxCell>
        <mxCell id="3zZDL_gGiHl7jCIEi6MY-19" value="" style="edgeStyle=elbowEdgeStyle;fontSize=12;html=1;endArrow=blockThin;endFill=1;rounded=0;exitX=1;exitY=0.5;exitDx=0;exitDy=0;exitPerimeter=0;" parent="3zZDL_gGiHl7jCIEi6MY-8" edge="1">
          <mxGeometry width="160" relative="1" as="geometry">
            <mxPoint x="300" y="45" as="sourcePoint" />
            <mxPoint x="370" y="45" as="targetPoint" />
          </mxGeometry>
        </mxCell>
        <mxCell id="3zZDL_gGiHl7jCIEi6MY-30" value="Wysłanie zapytania" style="points=[[0.25,0,0],[0.5,0,0],[0.75,0,0],[1,0.25,0],[1,0.5,0],[1,0.75,0],[0.75,1,0],[0.5,1,0],[0.25,1,0],[0,0.75,0],[0,0.5,0],[0,0.25,0]];shape=mxgraph.bpmn.task;whiteSpace=wrap;rectStyle=rounded;size=10;html=1;container=1;expand=0;collapsible=0;taskMarker=send;" parent="3zZDL_gGiHl7jCIEi6MY-8" vertex="1">
          <mxGeometry x="370" y="25" width="120" height="80" as="geometry" />
        </mxCell>
        <mxCell id="3zZDL_gGiHl7jCIEi6MY-38" value="Otrzymanie ostatecznej&lt;div&gt;odpowiedzi&lt;/div&gt;" style="points=[[0.145,0.145,0],[0.5,0,0],[0.855,0.145,0],[1,0.5,0],[0.855,0.855,0],[0.5,1,0],[0.145,0.855,0],[0,0.5,0]];shape=mxgraph.bpmn.event;html=1;verticalLabelPosition=bottom;labelBackgroundColor=#ffffff;verticalAlign=top;align=center;perimeter=ellipsePerimeter;outlineConnect=0;aspect=fixed;outline=end;symbol=message;" parent="3zZDL_gGiHl7jCIEi6MY-8" vertex="1">
          <mxGeometry x="1205" y="25" width="50" height="50" as="geometry" />
        </mxCell>
        <mxCell id="3zZDL_gGiHl7jCIEi6MY-42" value="Otrzymanie diagnozy&lt;div&gt;i zaleceń&lt;/div&gt;" style="points=[[0.145,0.145,0],[0.5,0,0],[0.855,0.145,0],[1,0.5,0],[0.855,0.855,0],[0.5,1,0],[0.145,0.855,0],[0,0.5,0]];shape=mxgraph.bpmn.event;html=1;verticalLabelPosition=bottom;labelBackgroundColor=#ffffff;verticalAlign=top;align=center;perimeter=ellipsePerimeter;outlineConnect=0;aspect=fixed;outline=end;symbol=terminate2;" parent="3zZDL_gGiHl7jCIEi6MY-8" vertex="1">
          <mxGeometry x="1464" y="25" width="50" height="50" as="geometry" />
        </mxCell>
        <mxCell id="3zZDL_gGiHl7jCIEi6MY-43" value="" style="edgeStyle=elbowEdgeStyle;fontSize=12;html=1;endArrow=blockThin;endFill=1;rounded=0;exitX=1;exitY=0.5;exitDx=0;exitDy=0;exitPerimeter=0;entryX=0;entryY=0.5;entryDx=0;entryDy=0;entryPerimeter=0;" parent="3zZDL_gGiHl7jCIEi6MY-8" source="3zZDL_gGiHl7jCIEi6MY-38" target="3zZDL_gGiHl7jCIEi6MY-42" edge="1">
          <mxGeometry width="160" relative="1" as="geometry">
            <mxPoint x="860" y="430" as="sourcePoint" />
            <mxPoint x="950" y="430" as="targetPoint" />
            <Array as="points">
              <mxPoint x="1350" y="50" />
            </Array>
          </mxGeometry>
        </mxCell>
        <mxCell id="3zZDL_gGiHl7jCIEi6MY-15" value="" style="edgeStyle=elbowEdgeStyle;fontSize=12;html=1;endArrow=blockThin;endFill=1;rounded=0;exitX=1;exitY=0.5;exitDx=0;exitDy=0;exitPerimeter=0;" parent="1" source="3zZDL_gGiHl7jCIEi6MY-14" edge="1">
          <mxGeometry width="160" relative="1" as="geometry">
            <mxPoint x="430" y="480" as="sourcePoint" />
            <mxPoint x="320" y="115" as="targetPoint" />
          </mxGeometry>
        </mxCell>
        <mxCell id="3zZDL_gGiHl7jCIEi6MY-20" value="" style="edgeStyle=elbowEdgeStyle;fontSize=12;html=1;endFill=0;startFill=0;endSize=6;startSize=6;dashed=1;dashPattern=1 4;endArrow=openThin;startArrow=none;rounded=0;strokeWidth=2;entryX=0.5;entryY=0;entryDx=0;entryDy=0;entryPerimeter=0;exitX=0.5;exitY=1;exitDx=0;exitDy=0;exitPerimeter=0;" parent="1" source="3zZDL_gGiHl7jCIEi6MY-30" target="3zZDL_gGiHl7jCIEi6MY-21" edge="1">
          <mxGeometry width="160" relative="1" as="geometry">
            <mxPoint x="650" y="210" as="sourcePoint" />
            <mxPoint x="280" y="300" as="targetPoint" />
            <Array as="points">
              <mxPoint x="570" y="300" />
            </Array>
          </mxGeometry>
        </mxCell>
        <mxCell id="3zZDL_gGiHl7jCIEi6MY-22" value="zapytanie użytkownika" style="shape=message;html=1;html=1;outlineConnect=0;labelPosition=center;verticalLabelPosition=bottom;align=center;verticalAlign=top;" parent="1" vertex="1">
          <mxGeometry x="557.5" y="240" width="25" height="10" as="geometry" />
        </mxCell>
        <mxCell id="3zZDL_gGiHl7jCIEi6MY-39" value="" style="edgeStyle=elbowEdgeStyle;fontSize=12;html=1;endFill=0;startFill=0;endSize=6;startSize=6;dashed=1;dashPattern=1 4;endArrow=openThin;startArrow=none;rounded=0;strokeWidth=2;exitX=0.5;exitY=0;exitDx=0;exitDy=0;exitPerimeter=0;entryX=0.5;entryY=1;entryDx=0;entryDy=0;entryPerimeter=0;" parent="1" source="3zZDL_gGiHl7jCIEi6MY-40" target="3zZDL_gGiHl7jCIEi6MY-38" edge="1">
          <mxGeometry width="160" relative="1" as="geometry">
            <mxPoint x="1222.5" y="167.5" as="sourcePoint" />
            <mxPoint x="1270" y="323" as="targetPoint" />
            <Array as="points" />
          </mxGeometry>
        </mxCell>
        <mxCell id="3zZDL_gGiHl7jCIEi6MY-41" value="" style="edgeStyle=elbowEdgeStyle;fontSize=12;html=1;endFill=0;startFill=0;endSize=6;startSize=6;dashed=1;dashPattern=1 4;endArrow=openThin;startArrow=none;rounded=0;strokeWidth=2;exitX=0.5;exitY=0;exitDx=0;exitDy=0;exitPerimeter=0;entryX=0.5;entryY=1;entryDx=0;entryDy=0;entryPerimeter=0;" parent="1" source="3zZDL_gGiHl7jCIEi6MY-36" target="3zZDL_gGiHl7jCIEi6MY-40" edge="1">
          <mxGeometry width="160" relative="1" as="geometry">
            <mxPoint x="1370" y="330" as="sourcePoint" />
            <mxPoint x="1370" y="145" as="targetPoint" />
            <Array as="points">
              <mxPoint x="1370" y="240" />
            </Array>
          </mxGeometry>
        </mxCell>
        <mxCell id="3zZDL_gGiHl7jCIEi6MY-40" value="ostateczna odpowiedź&lt;div&gt;(diagnoza i zalecenia)&lt;/div&gt;" style="shape=message;html=1;html=1;outlineConnect=0;labelPosition=center;verticalLabelPosition=bottom;align=center;verticalAlign=top;" parent="1" vertex="1">
          <mxGeometry x="1357.5" y="240" width="25" height="10" as="geometry" />
        </mxCell>
        <mxCell id="zLu5Su_oFIsLBOQvC4iy-1" value="Agent analizy danych medycznych" style="swimlane;startSize=20;horizontal=0;html=1;whiteSpace=wrap;" parent="1" vertex="1">
          <mxGeometry x="140" y="780" width="1600" height="240" as="geometry" />
        </mxCell>
        <mxCell id="zLu5Su_oFIsLBOQvC4iy-9" value="" style="shape=datastore;whiteSpace=wrap;html=1;" parent="zLu5Su_oFIsLBOQvC4iy-1" vertex="1">
          <mxGeometry x="150" y="90" width="60" height="60" as="geometry" />
        </mxCell>
        <mxCell id="zLu5Su_oFIsLBOQvC4iy-12" value="" style="edgeStyle=elbowEdgeStyle;fontSize=12;html=1;endFill=0;startFill=0;endSize=6;startSize=6;dashed=1;dashPattern=1 4;endArrow=openThin;startArrow=none;rounded=0;strokeWidth=2;elbow=vertical;entryX=0.5;entryY=0;entryDx=0;entryDy=0;" parent="zLu5Su_oFIsLBOQvC4iy-1" target="zLu5Su_oFIsLBOQvC4iy-9" edge="1">
          <mxGeometry width="160" relative="1" as="geometry">
            <mxPoint x="179.17000000000002" y="-50" as="sourcePoint" />
            <mxPoint x="80" y="50" as="targetPoint" />
            <Array as="points">
              <mxPoint x="150" y="-20" />
            </Array>
          </mxGeometry>
        </mxCell>
        <mxCell id="zLu5Su_oFIsLBOQvC4iy-17" value="Ekstrakcja informacji o lokalizacji, czasie i objawach z nowych rozmów i dodanie ich do tabeli (co 24h)" style="points=[[0.25,0,0],[0.5,0,0],[0.75,0,0],[1,0.25,0],[1,0.5,0],[1,0.75,0],[0.75,1,0],[0.5,1,0],[0.25,1,0],[0,0.75,0],[0,0.5,0],[0,0.25,0]];shape=mxgraph.bpmn.task;whiteSpace=wrap;rectStyle=rounded;size=10;html=1;container=1;expand=0;collapsible=0;taskMarker=abstract;isLoopStandard=1;" parent="zLu5Su_oFIsLBOQvC4iy-1" vertex="1">
          <mxGeometry x="500" y="80" width="210" height="80" as="geometry" />
        </mxCell>
        <mxCell id="zLu5Su_oFIsLBOQvC4iy-13" value="" style="edgeStyle=elbowEdgeStyle;fontSize=12;html=1;endFill=0;startFill=0;endSize=6;startSize=6;dashed=1;dashPattern=1 4;endArrow=openThin;startArrow=none;rounded=0;strokeWidth=2;elbow=vertical;exitX=0.5;exitY=1;exitDx=0;exitDy=0;entryX=0.5;entryY=1;entryDx=0;entryDy=0;entryPerimeter=0;" parent="zLu5Su_oFIsLBOQvC4iy-1" source="zLu5Su_oFIsLBOQvC4iy-9" target="zLu5Su_oFIsLBOQvC4iy-17" edge="1">
          <mxGeometry width="160" relative="1" as="geometry">
            <mxPoint x="189.17000000000002" y="-40" as="sourcePoint" />
            <mxPoint x="560" y="160" as="targetPoint" />
            <Array as="points">
              <mxPoint x="380" y="190" />
            </Array>
          </mxGeometry>
        </mxCell>
        <mxCell id="zLu5Su_oFIsLBOQvC4iy-15" value="logi konwersacji z ostatnich 24h" style="edgeLabel;html=1;align=center;verticalAlign=middle;resizable=0;points=[];" parent="zLu5Su_oFIsLBOQvC4iy-13" vertex="1" connectable="0">
          <mxGeometry x="0.1644" relative="1" as="geometry">
            <mxPoint x="-22" y="10" as="offset" />
          </mxGeometry>
        </mxCell>
        <mxCell id="zLu5Su_oFIsLBOQvC4iy-19" value="" style="shape=datastore;whiteSpace=wrap;html=1;" parent="zLu5Su_oFIsLBOQvC4iy-1" vertex="1">
          <mxGeometry x="1300" y="90" width="60" height="60" as="geometry" />
        </mxCell>
        <mxCell id="zLu5Su_oFIsLBOQvC4iy-20" value="logi z konwersacji" style="text;html=1;align=center;verticalAlign=middle;resizable=0;points=[];autosize=1;strokeColor=none;fillColor=none;" parent="zLu5Su_oFIsLBOQvC4iy-1" vertex="1">
          <mxGeometry x="70" y="150" width="120" height="30" as="geometry" />
        </mxCell>
        <mxCell id="zLu5Su_oFIsLBOQvC4iy-21" value="tabela z danymi przygotowanymi dla interfejsu administratora" style="text;html=1;align=center;verticalAlign=middle;resizable=0;points=[];autosize=1;strokeColor=none;fillColor=none;" parent="zLu5Su_oFIsLBOQvC4iy-1" vertex="1">
          <mxGeometry x="1215" y="150" width="350" height="30" as="geometry" />
        </mxCell>
        <mxCell id="zLu5Su_oFIsLBOQvC4iy-22" value="" style="edgeStyle=elbowEdgeStyle;fontSize=12;html=1;endFill=0;startFill=0;endSize=6;startSize=6;dashed=1;dashPattern=1 4;endArrow=openThin;startArrow=none;rounded=0;strokeWidth=2;elbow=vertical;exitX=1;exitY=0.5;exitDx=0;exitDy=0;entryX=0;entryY=0.5;entryDx=0;entryDy=0;exitPerimeter=0;" parent="zLu5Su_oFIsLBOQvC4iy-1" source="zLu5Su_oFIsLBOQvC4iy-17" target="zLu5Su_oFIsLBOQvC4iy-19" edge="1">
          <mxGeometry width="160" relative="1" as="geometry">
            <mxPoint x="190" y="160" as="sourcePoint" />
            <mxPoint x="615" y="170" as="targetPoint" />
            <Array as="points" />
          </mxGeometry>
        </mxCell>
        <mxCell id="zLu5Su_oFIsLBOQvC4iy-23" value="nowe wiersze do tabeli zawierającej następujące informacje: czas, lokalizacja, typ objawów, id konwersacji" style="edgeLabel;html=1;align=center;verticalAlign=middle;resizable=0;points=[];" parent="zLu5Su_oFIsLBOQvC4iy-22" vertex="1" connectable="0">
          <mxGeometry x="0.1644" relative="1" as="geometry">
            <mxPoint x="-22" y="10" as="offset" />
          </mxGeometry>
        </mxCell>
        <mxCell id="zLu5Su_oFIsLBOQvC4iy-11" value="" style="edgeStyle=elbowEdgeStyle;fontSize=12;html=1;endFill=0;startFill=0;endSize=6;startSize=6;dashed=1;dashPattern=1 4;endArrow=none;startArrow=none;rounded=0;strokeWidth=2;exitX=0.5;exitY=1;exitDx=0;exitDy=0;exitPerimeter=0;elbow=vertical;" parent="1" source="zLu5Su_oFIsLBOQvC4iy-10" edge="1">
          <mxGeometry width="160" relative="1" as="geometry">
            <mxPoint x="1625" y="270" as="sourcePoint" />
            <mxPoint x="320" y="730" as="targetPoint" />
            <Array as="points">
              <mxPoint x="930" y="730" />
            </Array>
          </mxGeometry>
        </mxCell>
      </root>
    </mxGraphModel>
  </diagram>
</mxfile>
